<svg width="64.000000" height="64.000000" viewBox="0 0 64 64" fill="none" xmlns="http://www.w3.org/2000/svg" xmlns:xlink="http://www.w3.org/1999/xlink">
	<desc>
			Created with Pixso.
	</desc>
	<defs>
		<clipPath id="clip8_532">
			<rect id="map 1" width="64.000000" height="64.000000" fill="white" fill-opacity="0"/>
		</clipPath>
	</defs>
	<rect id="map 1" width="64.000000" height="64.000000" fill="#FFFFFF" fill-opacity="0"/>
	<g clip-path="url(#clip8_532)">
		<path id="Vector" d="M63.5 64L0.5 64C0.22 64 0 63.77 0 63.5L0 16.08C0 15.8 0.22 15.58 0.5 15.58L63.5 15.58C63.77 15.58 64 15.8 64 16.08L64 63.5C64 63.77 63.77 64 63.5 64Z" fill="#F3F3F3" fill-opacity="1.000000" fill-rule="nonzero"/>
		<path id="Vector" d="M60.13 15.58L60.13 64L63.5 64C63.77 64 64 63.77 64 63.5L64 16.08C64 15.8 63.77 15.58 63.5 15.58L60.13 15.58Z" fill="#E4E4E4" fill-opacity="1.000000" fill-rule="nonzero"/>
		<path id="Vector" d="M3.86 59.63L3.86 19.94C3.86 19.66 4.08 19.44 4.36 19.44L59.63 19.44C59.91 19.44 60.13 19.66 60.13 19.94L60.13 59.63C60.13 59.91 59.91 60.13 59.63 60.13L4.36 60.13C4.08 60.13 3.86 59.91 3.86 59.63Z" fill="#29CEF6" fill-opacity="1.000000" fill-rule="nonzero"/>
		<path id="Vector" d="M56.27 19.44L56.27 60.13L59.63 60.13C59.91 60.13 60.13 59.91 60.13 59.63L60.13 19.94C60.13 19.66 59.91 19.44 59.63 19.44L56.27 19.44Z" fill="#22B5ED" fill-opacity="1.000000" fill-rule="nonzero"/>
		<path id="Vector" d="M60.13 31.4C57.75 30.5 55.29 29.82 53.05 29.2C32.18 25.84 35.03 40.62 22.31 45.44C17.33 46.73 11.8 44.05 6.96 45.76C5.72 46.32 4.69 47 3.86 47.77L3.86 59.63C3.86 59.91 4.08 60.13 4.36 60.13L59.63 60.13C59.91 60.13 60.13 59.91 60.13 59.63L60.13 31.4Z" fill="#FFD54F" fill-opacity="1.000000" fill-rule="nonzero"/>
		<path id="Vector" d="M56.27 30.11L56.27 60.13L59.63 60.13C59.91 60.13 60.13 59.91 60.13 59.63L60.13 31.4C58.85 30.91 57.55 30.49 56.27 30.11Z" fill="#FFC328" fill-opacity="1.000000" fill-rule="nonzero"/>
		<path id="Vector" d="M3.86 19.94L3.86 33.85C6.3 33.67 8.77 33.88 11.21 34.01C26.94 35.55 25.45 24.68 36.67 19.44L4.36 19.44C4.08 19.44 3.86 19.66 3.86 19.94Z" fill="#9CCC65" fill-opacity="1.000000" fill-rule="nonzero"/>
		<path id="Vector" d="M32.81 19.44C22.85 24.08 22.9 33.16 12.07 34.08C26.89 35.15 25.66 24.58 36.67 19.44L32.81 19.44Z" fill="#8BC34A" fill-opacity="1.000000" fill-rule="nonzero"/>
		<path id="Vector" d="M57.81 14.11C57.81 22.7 51.81 24.83 48.89 29.98C45.96 35.13 46.11 38.63 43.77 38.63C41.51 38.63 41.51 34.88 38.65 29.98C35.58 24.72 29.73 22.7 29.73 14.11C29.73 6.32 36.02 0 43.77 0C51.52 0 57.81 6.32 57.81 14.11Z" fill="#F75632" fill-opacity="1.000000" fill-rule="nonzero"/>
		<path id="Vector" d="M43.77 0C43.12 0 42.47 0.04 41.84 0.13C48.68 1.08 53.94 6.97 53.94 14.11C53.94 22.7 47.95 24.83 45.02 29.98C43.26 33.09 42.61 35.59 41.87 37.09C42.36 38.06 42.9 38.63 43.77 38.63C46.11 38.63 45.96 35.13 48.89 29.98C51.81 24.83 57.81 22.7 57.81 14.11C57.81 6.32 51.52 0 43.77 0Z" fill="#E33629" fill-opacity="1.000000" fill-rule="nonzero"/>
		<path id="Vector" d="M45.1 42.87L46.49 41.48C46.85 41.11 46.85 40.52 46.49 40.15C46.12 39.78 45.53 39.78 45.16 40.15L43.77 41.54L42.38 40.15C42.01 39.78 41.42 39.78 41.05 40.15C40.69 40.52 40.69 41.11 41.05 41.48L42.45 42.87L41.05 44.26C40.69 44.62 40.69 45.22 41.05 45.58C41.24 45.77 41.48 45.86 41.72 45.86C41.96 45.86 42.2 45.77 42.38 45.58L43.77 44.19L45.16 45.58C45.34 45.77 45.58 45.86 45.82 45.86C46.06 45.86 46.3 45.77 46.49 45.58C46.85 45.22 46.85 44.62 46.49 44.26L45.1 42.87Z" fill="#546E7A" fill-opacity="1.000000" fill-rule="nonzero"/>
		<path id="Vector" d="M44.41 47.23C43.96 46.98 43.39 47.15 43.14 47.6C43.02 47.82 42.9 48.03 42.78 48.24C42.53 48.69 42.68 49.26 43.13 49.52C43.28 49.6 43.44 49.64 43.6 49.64C43.92 49.64 44.24 49.47 44.41 49.17C44.54 48.95 44.66 48.73 44.79 48.5C45.04 48.04 44.87 47.47 44.41 47.23Z" fill="#546E7A" fill-opacity="1.000000" fill-rule="nonzero"/>
		<path id="Vector" d="M22.39 51.47C21.91 51.47 21.42 51.47 20.93 51.49C20.41 51.51 20.01 51.94 20.03 52.46C20.04 52.96 20.46 53.36 20.96 53.36C20.97 53.36 20.98 53.36 21 53.36C21.46 53.35 21.92 53.34 22.37 53.34L22.38 53.34C22.9 53.34 23.32 52.93 23.32 52.42C23.33 51.9 22.91 51.47 22.39 51.47Z" fill="#546E7A" fill-opacity="1.000000" fill-rule="nonzero"/>
		<path id="Vector" d="M17.3 51.81C16.81 51.88 16.32 51.96 15.85 52.05C15.34 52.15 15.01 52.64 15.11 53.15C15.19 53.6 15.59 53.91 16.03 53.91C16.09 53.91 16.15 53.91 16.21 53.89C16.65 53.81 17.11 53.73 17.56 53.67C18.08 53.59 18.43 53.12 18.36 52.6C18.28 52.09 17.81 51.74 17.3 51.81Z" fill="#546E7A" fill-opacity="1.000000" fill-rule="nonzero"/>
		<path id="Vector" d="M12.3 52.97C11.83 53.13 11.36 53.3 10.91 53.48C10.43 53.67 10.2 54.21 10.39 54.69C10.54 55.06 10.89 55.28 11.26 55.28C11.38 55.28 11.5 55.26 11.61 55.22C12.02 55.05 12.45 54.89 12.89 54.75C13.38 54.59 13.65 54.06 13.48 53.57C13.32 53.07 12.79 52.81 12.3 52.97Z" fill="#546E7A" fill-opacity="1.000000" fill-rule="nonzero"/>
		<path id="Vector" d="M37 52.86C36.6 52.93 36.16 52.98 35.71 53.01C35.19 53.03 34.79 53.47 34.82 53.99C34.85 54.49 35.26 54.88 35.76 54.88C35.77 54.88 35.79 54.88 35.81 54.88C36.34 54.85 36.85 54.79 37.33 54.71C37.84 54.62 38.18 54.13 38.09 53.62C38 53.11 37.51 52.77 37 52.86Z" fill="#546E7A" fill-opacity="1.000000" fill-rule="nonzero"/>
		<path id="Vector" d="M40.86 50.91C40.55 51.22 40.24 51.48 39.9 51.71C39.48 52.01 39.37 52.59 39.67 53.02C39.85 53.28 40.14 53.42 40.44 53.42C40.62 53.42 40.81 53.37 40.97 53.25C41.4 52.96 41.81 52.62 42.19 52.23C42.55 51.87 42.55 51.27 42.19 50.91C41.82 50.54 41.23 50.54 40.86 50.91Z" fill="#546E7A" fill-opacity="1.000000" fill-rule="nonzero"/>
		<path id="Vector" d="M32.34 52.83C31.91 52.78 31.46 52.71 30.96 52.63C30.45 52.55 29.97 52.89 29.89 53.4C29.8 53.92 30.15 54.4 30.66 54.48C31.18 54.57 31.65 54.63 32.1 54.69C32.14 54.7 32.18 54.7 32.22 54.7C32.68 54.7 33.09 54.35 33.15 53.88C33.21 53.37 32.85 52.9 32.34 52.83Z" fill="#546E7A" fill-opacity="1.000000" fill-rule="nonzero"/>
		<path id="Vector" d="M27.48 52.01C26.94 51.91 26.48 51.84 26.06 51.77C25.55 51.7 25.07 52.05 24.99 52.56C24.91 53.07 25.26 53.55 25.78 53.63C26.18 53.69 26.63 53.76 27.15 53.86C27.21 53.87 27.26 53.87 27.32 53.87C27.77 53.87 28.16 53.55 28.24 53.1C28.33 52.59 27.99 52.1 27.48 52.01Z" fill="#546E7A" fill-opacity="1.000000" fill-rule="nonzero"/>
		<path id="Vector" d="M7.6 55.18C7.37 55.33 7.15 55.48 6.94 55.63C6.52 55.94 6.43 56.53 6.74 56.94C6.92 57.2 7.21 57.33 7.49 57.33C7.69 57.33 7.88 57.27 8.05 57.15C8.23 57.01 8.43 56.88 8.62 56.75C9.06 56.46 9.18 55.88 8.89 55.45C8.61 55.02 8.03 54.9 7.6 55.18Z" fill="#546E7A" fill-opacity="1.000000" fill-rule="nonzero"/>
		<path id="Vector" d="M50.17 14.02C50.17 17.56 47.3 20.42 43.77 20.42C40.24 20.42 37.38 17.56 37.38 14.02C37.38 10.49 40.24 7.63 43.77 7.63C47.3 7.63 50.17 10.49 50.17 14.02Z" fill="#F3F3F3" fill-opacity="1.000000" fill-rule="evenodd"/>
	</g>
</svg>
